<svg xmlns="http://www.w3.org/2000/svg" xmlns:xlink="http://www.w3.org/1999/xlink" version="1.1" width="1000" height="1000" viewBox="0 0 1000 1000" xml:space="preserve">
<desc>Created with Fabric.js 3.5.0</desc>
<defs>
</defs>
<rect x="0" y="0" width="100%" height="100%" fill="rgba(255,255,255,0)"/>
<g transform="matrix(56.8182 0 0 56.8182 500.0001 500.0001)" id="27380">
<path style="stroke: none; stroke-width: 1; stroke-dasharray: none; stroke-linecap: butt; stroke-dashoffset: 0; stroke-linejoin: miter; stroke-miterlimit: 4; is-custom-font: none; font-file-url: none; fill: rgb(200,44,80); fill-rule: nonzero; opacity: 1;" vector-effect="non-scaling-stroke" transform=" translate(-8, -8)" d="M 8 16 s 6 -5.686 6 -10 A 6 6 0 0 0 2 6 c 0 4.314 6 10 6 10 z m 0 -7 a 3 3 0 1 1 0 -6 a 3 3 0 0 1 0 6 z" stroke-linecap="round"/>
</g>
<g transform="matrix(6.2017 0 0 3.8818 501.0061 397.5949)" id="294785">
<path style="stroke: none; stroke-width: 1; stroke-dasharray: none; stroke-linecap: butt; stroke-dashoffset: 0; stroke-linejoin: miter; stroke-miterlimit: 4; is-custom-font: none; font-file-url: none; fill: rgb(237,243,247); fill-rule: nonzero; opacity: 1;" vector-effect="non-scaling-stroke" transform=" translate(-78.4998, -78.5)" d="M 78.5 0 C 52.9419 0 32.1166 35.2271 32.1166 78.5 C 32.1166 121.773 52.9419 157 78.5 157 C 104.058 157 124.883 121.773 124.883 78.5 C 124.883 35.2271 104.058 0 78.5 0 Z" stroke-linecap="round"/>
</g>
<g transform="matrix(1 0 0 1 500 401.02)" style="" id="172689">
		
<path xml:space="preserve" font-family="Lato" font-size="408" font-style="normal" font-weight="bold" style="stroke: none; stroke-width: 1; stroke-dasharray: none; stroke-linecap: butt; stroke-dashoffset: 0; stroke-linejoin: miter; stroke-miterlimit: 4; is-custom-font: none; font-file-url: none; fill: rgb(0,0,0); fill-rule: nonzero; opacity: 1; white-space: pre;" d="M-181.76 128.17L-181.76 90.43L-121.99 90.43L-121.99-81.54Q-121.99-91.54-121.38-102.55L-121.38-102.55L-163.81-67.06Q-166.46-64.81-169.22-64.00Q-171.97-63.18-174.62-63.18L-174.62-63.18Q-178.70-63.18-182.07-64.92Q-185.44-66.65-187.07-68.89L-187.07-68.89L-202.98-90.72L-113.02-167.22L-71.60-167.22L-71.60 90.43L-18.56 90.43L-18.56 128.17L-181.76 128.17ZM226.44-19.32L226.44-19.32Q226.44 19.23 218.18 47.69Q209.92 76.15 195.33 94.71Q180.74 113.28 160.85 122.36Q140.96 131.43 117.91 131.43L117.91 131.43Q94.86 131.43 75.17 122.36Q55.49 113.28 41.00 94.71Q26.52 76.15 18.36 47.69Q10.20 19.23 10.20-19.32L10.20-19.32Q10.20-58.08 18.36-86.44Q26.52-114.79 41.00-133.36Q55.49-151.92 75.17-161.00Q94.86-170.08 117.91-170.08L117.91-170.08Q140.96-170.08 160.85-161.00Q180.74-151.92 195.33-133.36Q209.92-114.79 218.18-86.44Q226.44-58.08 226.44-19.32ZM174.42-19.32L174.42-19.32Q174.42-51.35 169.73-72.36Q165.04-93.37 157.18-105.82Q149.33-118.26 139.13-123.26Q128.93-128.26 117.91-128.26L117.91-128.26Q107.10-128.26 97.00-123.26Q86.90-118.26 79.15-105.82Q71.40-93.37 66.81-72.36Q62.22-51.35 62.22-19.32L62.22-19.32Q62.22 12.71 66.81 33.72Q71.40 54.73 79.15 67.17Q86.90 79.62 97.00 84.62Q107.10 89.61 117.91 89.61L117.91 89.61Q128.93 89.61 139.13 84.62Q149.33 79.62 157.18 67.17Q165.04 54.73 169.73 33.72Q174.42 12.71 174.42-19.32Z"/></g>
</svg>