<svg width="19" height="19" xmlns="http://www.w3.org/2000/svg" class="bi bi-moon-stars" fill="currentColor">

 <g>
  <title>Layer 1</title>
  <ellipse stroke="null" fill="#ffffff" ry="9.4782" rx="9.41215" id="svg_3" cy="9.5" cx="9.51651"/>
  <ellipse id="svg_4" cy="5.75759" cx="5.53699" stroke="null"/>
  <ellipse transform="rotate(109.983 8.21202 9.02707)" id="svg_5" cy="9.02707" cx="8.21202" stroke="null"/>
  <path transform="rotate(37.3053 10.2926 9.31837)" stroke="null" fill="#040716" id="svg_1" d="m9.01728,3.11033a0.65302,0.6174 0 0 1 0.06803,0.68975a6.12885,5.79455 0 0 0 -0.74655,2.78151c0,3.2325 2.78723,5.85002 6.22237,5.85002c0.4481,0 0.8843,-0.04421 1.30349,-0.12862a0.66917,0.63267 0 0 1 0.68873,0.25403a0.62326,0.58926 0 0 1 -0.02636,0.71789a7.09902,6.71181 0 0 1 -5.51664,2.47442c-3.91981,0 -7.09477,-2.98571 -7.09477,-6.66438c0,-2.76865 1.7975,-5.14339 4.35686,-6.14987a0.63941,0.60454 0 0 1 0.74484,0.17525zm-0.97102,0.83043a6.18071,5.84359 0 0 0 -3.25914,5.14419c0,3.2317 2.78808,5.84922 6.22323,5.84922a6.22068,5.88137 0 0 0 4.42573,-1.73805c-0.28655,0.03377 -0.5782,0.05065 -0.87495,0.05065c-3.9198,0 -7.09391,-2.9857 -7.09391,-6.66438c0,-0.93815 0.20577,-1.83129 0.57904,-2.64163z"/>
 </g>
</svg>