<svg xmlns="http://www.w3.org/2000/svg" xmlns:xlink="http://www.w3.org/1999/xlink" version="1.1" width="1000" height="1000" viewBox="0 0 1000 1000" xml:space="preserve">
<desc>Created with Fabric.js 3.5.0</desc>
<defs>
</defs>
<rect x="0" y="0" width="100%" height="100%" fill="rgba(255,255,255,0)"/>
<g transform="matrix(56.8182 0 0 56.8182 500.0001 500.0001)" id="27380">
<path style="stroke: none; stroke-width: 1; stroke-dasharray: none; stroke-linecap: butt; stroke-dashoffset: 0; stroke-linejoin: miter; stroke-miterlimit: 4; is-custom-font: none; font-file-url: none; fill: rgb(200,44,80); fill-rule: nonzero; opacity: 1;" vector-effect="non-scaling-stroke" transform=" translate(-8, -8)" d="M 8 16 s 6 -5.686 6 -10 A 6 6 0 0 0 2 6 c 0 4.314 6 10 6 10 z m 0 -7 a 3 3 0 1 1 0 -6 a 3 3 0 0 1 0 6 z" stroke-linecap="round"/>
</g>
<g transform="matrix(6.2017 0 0 3.8818 501.0061 397.5949)" id="294785">
<path style="stroke: none; stroke-width: 1; stroke-dasharray: none; stroke-linecap: butt; stroke-dashoffset: 0; stroke-linejoin: miter; stroke-miterlimit: 4; is-custom-font: none; font-file-url: none; fill: rgb(237,243,247); fill-rule: nonzero; opacity: 1;" vector-effect="non-scaling-stroke" transform=" translate(-78.4998, -78.5)" d="M 78.5 0 C 52.9419 0 32.1166 35.2271 32.1166 78.5 C 32.1166 121.773 52.9419 157 78.5 157 C 104.058 157 124.883 121.773 124.883 78.5 C 124.883 35.2271 104.058 0 78.5 0 Z" stroke-linecap="round"/>
</g>
<g transform="matrix(1 0 0 1 500 391.02)" style="" id="172689">
		
<path xml:space="preserve" font-family="Lato" font-size="408" font-style="normal" font-weight="bold" style="stroke: none; stroke-width: 1; stroke-dasharray: none; stroke-linecap: butt; stroke-dashoffset: 0; stroke-linejoin: miter; stroke-miterlimit: 4; is-custom-font: none; font-file-url: none; fill: rgb(0,0,0); fill-rule: nonzero; opacity: 1; white-space: pre;" d="M4.49-170.08L4.49-170.08Q24.89-170.08 41.82-164.06Q58.75-158.04 70.79-147.03Q82.82-136.01 89.56-120.51Q96.29-105.00 96.29-86.03L96.29-86.03Q96.29-69.71 91.49-55.84Q86.70-41.97 78.64-29.32Q70.58-16.67 59.77-4.84Q48.96 6.99 37.13 19.23L37.13 19.23L-29.38 87.17Q-19.58 84.31-10.20 82.78Q-0.82 81.25 7.75 81.25L7.75 81.25L83.44 81.25Q91.60 81.25 96.39 85.84Q101.18 90.43 101.18 97.98L101.18 97.98L101.18 128.17L-101.18 128.17L-101.18 111.44Q-101.18 106.34-99.04 100.83Q-96.90 95.33-92.21 90.63L-92.21 90.63L-2.65 0.87Q8.57-10.55 17.44-20.95Q26.32-31.36 32.33-41.56Q38.35-51.76 41.51-62.26Q44.68-72.77 44.68-84.40L44.68-84.40Q44.68-95.01 41.62-103.06Q38.56-111.12 32.84-116.63Q27.13-122.14 19.28-124.89Q11.42-127.65 1.63-127.65L1.63-127.65Q-16.52-127.65-28.25-118.47Q-39.98-109.29-44.68-93.78L-44.68-93.78Q-46.92-86.03-51.41-82.66Q-55.90-79.30-62.83-79.30L-62.83-79.30Q-65.89-79.30-69.56-79.91L-69.56-79.91L-96.08-84.60Q-93.02-105.82-84.25-121.83Q-75.48-137.85-62.32-148.56Q-49.16-159.27-32.13-164.67Q-15.10-170.08 4.49-170.08Z"/></g>
</svg>