<svg xmlns="http://www.w3.org/2000/svg" xmlns:xlink="http://www.w3.org/1999/xlink" version="1.1" width="1000" height="1000" viewBox="0 0 1000 1000" xml:space="preserve">
<desc>Created with Fabric.js 3.5.0</desc>
<defs>
</defs>
<rect x="0" y="0" width="100%" height="100%" fill="rgba(255,255,255,0)"/>
<g transform="matrix(56.8182 0 0 56.8182 500.0001 500.0001)" id="27380">
<path style="stroke: none; stroke-width: 1; stroke-dasharray: none; stroke-linecap: butt; stroke-dashoffset: 0; stroke-linejoin: miter; stroke-miterlimit: 4; is-custom-font: none; font-file-url: none; fill: rgb(200,44,80); fill-rule: nonzero; opacity: 1;" vector-effect="non-scaling-stroke" transform=" translate(-8, -8)" d="M 8 16 s 6 -5.686 6 -10 A 6 6 0 0 0 2 6 c 0 4.314 6 10 6 10 z m 0 -7 a 3 3 0 1 1 0 -6 a 3 3 0 0 1 0 6 z" stroke-linecap="round"/>
</g>
<g transform="matrix(6.2017 0 0 3.8818 501.0061 397.5949)" id="294785">
<path style="stroke: none; stroke-width: 1; stroke-dasharray: none; stroke-linecap: butt; stroke-dashoffset: 0; stroke-linejoin: miter; stroke-miterlimit: 4; is-custom-font: none; font-file-url: none; fill: rgb(237,243,247); fill-rule: nonzero; opacity: 1;" vector-effect="non-scaling-stroke" transform=" translate(-78.4998, -78.5)" d="M 78.5 0 C 52.9419 0 32.1166 35.2271 32.1166 78.5 C 32.1166 121.773 52.9419 157 78.5 157 C 104.058 157 124.883 121.773 124.883 78.5 C 124.883 35.2271 104.058 0 78.5 0 Z" stroke-linecap="round"/>
</g>
<g transform="matrix(1 0 0 1 500 391.02)" style="" id="172689">
		
<path xml:space="preserve" font-family="Lato" font-size="408" font-style="normal" font-weight="bold" style="stroke: none; stroke-width: 1; stroke-dasharray: none; stroke-linecap: butt; stroke-dashoffset: 0; stroke-linejoin: miter; stroke-miterlimit: 4; is-custom-font: none; font-file-url: none; fill: rgb(0,0,0); fill-rule: nonzero; opacity: 1; white-space: pre;" d="M9.18-170.08L9.18-170.08Q29.58-170.08 46.00-164.26Q62.42-158.45 74.05-148.15Q85.68-137.85 91.90-123.97Q98.12-110.10 98.12-93.99L98.12-93.99Q98.12-79.91 94.96-69.20Q91.80-58.49 85.78-50.53Q79.76-42.58 71.09-37.07Q62.42-31.56 51.41-27.89L51.41-27.89Q77.93-19.53 90.98-2.39Q104.04 14.75 104.04 40.65L104.04 40.65Q104.04 62.69 95.88 79.62Q87.72 96.55 73.85 108.08Q59.98 119.60 41.72 125.52Q23.46 131.43 3.06 131.43L3.06 131.43Q-19.18 131.43-35.70 126.33Q-52.22 121.23-64.46 111.24Q-76.70 101.24-85.27 86.76Q-93.84 72.27-99.96 53.30L-99.96 53.30L-77.72 44.12Q-72.01 41.67-66.10 41.67L-66.10 41.67Q-60.79 41.67-56.61 43.92Q-52.43 46.16-50.18 50.45L-50.18 50.45Q-46.51 57.59-42.13 64.52Q-37.74 71.46-31.62 76.86Q-25.50 82.27-17.24 85.64Q-8.98 89.00 2.45 89.00L2.45 89.00Q15.30 89.00 24.89 84.82Q34.48 80.64 40.90 73.91Q47.33 67.17 50.49 58.91Q53.65 50.65 53.65 42.29L53.65 42.29Q53.65 31.68 51.41 23.01Q49.16 14.34 42.02 8.22Q34.88 2.10 21.52-1.37Q8.16-4.84-14.28-4.84L-14.28-4.84L-14.28-40.74Q4.28-40.95 16.52-44.21Q28.76-47.47 36.01-53.29Q43.25-59.10 46.10-67.26Q48.96-75.42 48.96-85.21L48.96-85.21Q48.96-106.23 37.54-116.94Q26.11-127.65 6.32-127.65L6.32-127.65Q-11.63-127.65-23.46-118.16Q-35.29-108.67-39.98-93.78L-39.98-93.78Q-42.43-86.03-46.72-82.66Q-51.00-79.30-57.94-79.30L-57.94-79.30Q-61.20-79.30-64.87-79.91L-64.87-79.91L-91.39-84.60Q-88.33-105.82-79.56-121.83Q-70.79-137.85-57.63-148.56Q-44.47-159.27-27.44-164.67Q-10.40-170.08 9.18-170.08Z"/></g>
</svg>