<svg xmlns="http://www.w3.org/2000/svg" xmlns:xlink="http://www.w3.org/1999/xlink" version="1.1" width="1000" height="1000" viewBox="0 0 1000 1000" xml:space="preserve">
<desc>Created with Fabric.js 3.5.0</desc>
<defs>
</defs>
<rect x="0" y="0" width="100%" height="100%" fill="rgba(255,255,255,0)"/>
<g transform="matrix(56.8182 0 0 56.8182 500.0001 500.0001)" id="27380">
<path style="stroke: none; stroke-width: 1; stroke-dasharray: none; stroke-linecap: butt; stroke-dashoffset: 0; stroke-linejoin: miter; stroke-miterlimit: 4; is-custom-font: none; font-file-url: none; fill: rgb(200,44,80); fill-rule: nonzero; opacity: 1;" vector-effect="non-scaling-stroke" transform=" translate(-8, -8)" d="M 8 16 s 6 -5.686 6 -10 A 6 6 0 0 0 2 6 c 0 4.314 6 10 6 10 z m 0 -7 a 3 3 0 1 1 0 -6 a 3 3 0 0 1 0 6 z" stroke-linecap="round"/>
</g>
<g transform="matrix(6.2017 0 0 3.8818 501.0061 397.5949)" id="294785">
<path style="stroke: none; stroke-width: 1; stroke-dasharray: none; stroke-linecap: butt; stroke-dashoffset: 0; stroke-linejoin: miter; stroke-miterlimit: 4; is-custom-font: none; font-file-url: none; fill: rgb(237,243,247); fill-rule: nonzero; opacity: 1;" vector-effect="non-scaling-stroke" transform=" translate(-78.4998, -78.5)" d="M 78.5 0 C 52.9419 0 32.1166 35.2271 32.1166 78.5 C 32.1166 121.773 52.9419 157 78.5 157 C 104.058 157 124.883 121.773 124.883 78.5 C 124.883 35.2271 104.058 0 78.5 0 Z" stroke-linecap="round"/>
</g>
<g transform="matrix(1 0 0 1 500 391.02)" style="" id="172689">
		
<path xml:space="preserve" font-family="Lato" font-size="408" font-style="normal" font-weight="bold" style="stroke: none; stroke-width: 1; stroke-dasharray: none; stroke-linecap: butt; stroke-dashoffset: 0; stroke-linejoin: miter; stroke-miterlimit: 4; is-custom-font: none; font-file-url: none; fill: rgb(0,0,0); fill-rule: nonzero; opacity: 1; white-space: pre;" d="M18.36-56.04L18.36-56.04Q35.09-56.04 50.90-50.53Q66.71-45.03 78.74-33.91Q90.78-22.79 98.12-6.27Q105.47 10.26 105.47 32.29L105.47 32.29Q105.47 52.89 97.92 70.95Q90.37 89.00 76.70 102.47Q63.04 115.93 43.76 123.68Q24.48 131.43 1.22 131.43L1.22 131.43Q-22.44 131.43-41.21 123.89Q-59.98 116.34-73.24 102.77Q-86.50 89.21-93.53 70.13Q-100.57 51.06-100.57 27.80L-100.57 27.80Q-100.57 6.99-92.11-14.94Q-83.64-36.87-65.89-60.53L-65.89-60.53L4.49-154.98Q8.16-159.88 15.20-163.35Q22.24-166.81 31.42-166.81L31.42-166.81L76.30-166.81L-11.22-59.71Q-14.08-56.25-16.63-53.19Q-19.18-50.13-21.62-46.86L-21.62-46.86Q-13.06-51.15-3.16-53.59Q6.73-56.04 18.36-56.04ZM-52.22 35.55L-52.22 35.55Q-52.22 47.79-48.86 57.89Q-45.49 67.99-38.86 75.13Q-32.23 82.27-22.44 86.25Q-12.65 90.23 0.20 90.23L0.20 90.23Q12.24 90.23 22.34 86.15Q32.44 82.07 39.68 74.72Q46.92 67.38 51.00 57.48Q55.08 47.59 55.08 35.96L55.08 35.96Q55.08 23.31 51.20 13.22Q47.33 3.12 40.19-3.92Q33.05-10.96 23.05-14.63Q13.06-18.30 1.02-18.30L1.02-18.30Q-11.02-18.30-20.81-14.22Q-30.60-10.14-37.64-2.90Q-44.68 4.34-48.45 14.24Q-52.22 24.13-52.22 35.55Z"/></g>
</svg>