<svg xmlns="http://www.w3.org/2000/svg" xmlns:xlink="http://www.w3.org/1999/xlink" version="1.1" width="1000" height="1000" viewBox="0 0 1000 1000" xml:space="preserve">
<desc>Created with Fabric.js 3.5.0</desc>
<defs>
</defs>
<rect x="0" y="0" width="100%" height="100%" fill="rgba(255,255,255,0)"/>
<g transform="matrix(56.8182 0 0 56.8182 500.0001 500.0001)" id="27380">
<path style="stroke: none; stroke-width: 1; stroke-dasharray: none; stroke-linecap: butt; stroke-dashoffset: 0; stroke-linejoin: miter; stroke-miterlimit: 4; is-custom-font: none; font-file-url: none; fill: rgb(200,44,80); fill-rule: nonzero; opacity: 1;" vector-effect="non-scaling-stroke" transform=" translate(-8, -8)" d="M 8 16 s 6 -5.686 6 -10 A 6 6 0 0 0 2 6 c 0 4.314 6 10 6 10 z m 0 -7 a 3 3 0 1 1 0 -6 a 3 3 0 0 1 0 6 z" stroke-linecap="round"/>
</g>
<g transform="matrix(6.2017 0 0 3.8818 501.0061 397.5949)" id="294785">
<path style="stroke: none; stroke-width: 1; stroke-dasharray: none; stroke-linecap: butt; stroke-dashoffset: 0; stroke-linejoin: miter; stroke-miterlimit: 4; is-custom-font: none; font-file-url: none; fill: rgb(237,243,247); fill-rule: nonzero; opacity: 1;" vector-effect="non-scaling-stroke" transform=" translate(-78.4998, -78.5)" d="M 78.5 0 C 52.9419 0 32.1166 35.2271 32.1166 78.5 C 32.1166 121.773 52.9419 157 78.5 157 C 104.058 157 124.883 121.773 124.883 78.5 C 124.883 35.2271 104.058 0 78.5 0 Z" stroke-linecap="round"/>
</g>
<g transform="matrix(1 0 0 1 500 391.02)" style="" id="172689">
		
<path xml:space="preserve" font-family="Lato" font-size="408" font-style="normal" font-weight="bold" style="stroke: none; stroke-width: 1; stroke-dasharray: none; stroke-linecap: butt; stroke-dashoffset: 0; stroke-linejoin: miter; stroke-miterlimit: 4; is-custom-font: none; font-file-url: none; fill: rgb(0,0,0); fill-rule: nonzero; opacity: 1; white-space: pre;" d="M0.00 131.43L0.00 131.43Q-22.85 131.43-41.72 125.31Q-60.59 119.19-74.05 107.97Q-87.52 96.75-94.96 80.84Q-102.41 64.93-102.41 45.35L-102.41 45.35Q-102.41 19.23-89.56 1.18Q-76.70-16.87-49.57-25.65L-49.57-25.65Q-71.20-34.62-81.91-51.15Q-92.62-67.67-92.62-90.93L-92.62-90.93Q-92.62-107.65-85.78-122.14Q-78.95-136.62-66.71-147.33Q-54.47-158.04-37.43-164.06Q-20.40-170.08 0.00-170.08L0.00-170.08Q20.40-170.08 37.43-164.06Q54.47-158.04 66.71-147.33Q78.95-136.62 85.78-122.14Q92.62-107.65 92.62-90.93L92.62-90.93Q92.62-67.67 81.80-51.15Q70.99-34.62 49.57-25.65L49.57-25.65Q76.70-16.87 89.56 1.18Q102.41 19.23 102.41 45.35L102.41 45.35Q102.41 64.93 94.96 80.84Q87.52 96.75 74.05 107.97Q60.59 119.19 41.72 125.31Q22.85 131.43 0.00 131.43ZM0.00 92.06L0.00 92.06Q12.44 92.06 21.83 88.49Q31.21 84.92 37.64 78.60Q44.06 72.27 47.33 63.50Q50.59 54.73 50.59 44.53L50.59 44.53Q50.59 20.25 37.13 7.81Q23.66-4.63 0.00-4.63L0.00-4.63Q-23.66-4.63-37.13 7.81Q-50.59 20.25-50.59 44.53L-50.59 44.53Q-50.59 54.73-47.33 63.50Q-44.06 72.27-37.64 78.60Q-31.21 84.92-21.83 88.49Q-12.44 92.06 0.00 92.06ZM0.00-44.21L0.00-44.21Q12.24-44.21 20.60-48.09Q28.97-51.96 34.07-58.39Q39.17-64.81 41.31-73.08Q43.45-81.34 43.45-90.11L43.45-90.11Q43.45-98.47 40.80-106.02Q38.15-113.57 32.84-119.38Q27.54-125.20 19.38-128.67Q11.22-132.13 0.00-132.13L0.00-132.13Q-11.22-132.13-19.38-128.67Q-27.54-125.20-32.95-119.38Q-38.35-113.57-40.90-106.02Q-43.45-98.47-43.45-90.11L-43.45-90.11Q-43.45-81.34-41.31-73.08Q-39.17-64.81-34.07-58.39Q-28.97-51.96-20.60-48.09Q-12.24-44.21 0.00-44.21Z"/></g>
</svg>