<svg xmlns="http://www.w3.org/2000/svg" xmlns:xlink="http://www.w3.org/1999/xlink" version="1.1" width="1000" height="1000" viewBox="0 0 1000 1000" xml:space="preserve">
<desc>Created with Fabric.js 3.5.0</desc>
<defs>
</defs>
<rect x="0" y="0" width="100%" height="100%" fill="rgba(255,255,255,0)"/>
<g transform="matrix(56.8182 0 0 56.8182 500.0001 500.0001)" id="27380">
<path style="stroke: none; stroke-width: 1; stroke-dasharray: none; stroke-linecap: butt; stroke-dashoffset: 0; stroke-linejoin: miter; stroke-miterlimit: 4; is-custom-font: none; font-file-url: none; fill: rgb(200,44,80); fill-rule: nonzero; opacity: 1;" vector-effect="non-scaling-stroke" transform=" translate(-8, -8)" d="M 8 16 s 6 -5.686 6 -10 A 6 6 0 0 0 2 6 c 0 4.314 6 10 6 10 z m 0 -7 a 3 3 0 1 1 0 -6 a 3 3 0 0 1 0 6 z" stroke-linecap="round"/>
</g>
<g transform="matrix(6.2017 0 0 3.8818 501.0061 397.5949)" id="294785">
<path style="stroke: none; stroke-width: 1; stroke-dasharray: none; stroke-linecap: butt; stroke-dashoffset: 0; stroke-linejoin: miter; stroke-miterlimit: 4; is-custom-font: none; font-file-url: none; fill: rgb(237,243,247); fill-rule: nonzero; opacity: 1;" vector-effect="non-scaling-stroke" transform=" translate(-78.4998, -78.5)" d="M 78.5 0 C 52.9419 0 32.1166 35.2271 32.1166 78.5 C 32.1166 121.773 52.9419 157 78.5 157 C 104.058 157 124.883 121.773 124.883 78.5 C 124.883 35.2271 104.058 0 78.5 0 Z" stroke-linecap="round"/>
</g>
<g transform="matrix(1 0 0 1 500 391.02)" style="" id="172689">
		
<path xml:space="preserve" font-family="Lato" font-size="408" font-style="normal" font-weight="bold" style="stroke: none; stroke-width: 1; stroke-dasharray: none; stroke-linecap: butt; stroke-dashoffset: 0; stroke-linejoin: miter; stroke-miterlimit: 4; is-custom-font: none; font-file-url: none; fill: rgb(0,0,0); fill-rule: nonzero; opacity: 1; white-space: pre;" d="M-10.20 10.46L-10.20 10.46Q-25.50 10.46-40.19 5.16Q-54.88-0.15-66.40-10.86Q-77.93-21.57-84.86-37.38Q-91.80-53.19-91.80-74.40L-91.80-74.40Q-91.80-94.19-84.46-111.53Q-77.11-128.87-63.85-141.93Q-50.59-154.98-32.03-162.53Q-13.46-170.08 8.98-170.08L8.98-170.08Q31.62-170.08 49.67-162.94Q67.73-155.80 80.48-142.95Q93.23-130.09 100.06-112.14Q106.90-94.19 106.90-72.77L106.90-72.77Q106.90-59.10 104.55-46.86Q102.20-34.62 97.82-23.30Q93.43-11.98 87.31-1.27Q81.19 9.44 73.64 20.25L73.64 20.25L6.12 116.54Q2.65 121.44-4.18 124.80Q-11.02 128.17-19.79 128.17L-19.79 128.17L-66.10 128.17L25.50 13.73Q28.97 9.44 32.03 5.36Q35.09 1.28 37.94-2.80L37.94-2.80Q27.74 3.73 15.50 7.10Q3.26 10.46-10.20 10.46ZM58.55-77.87L58.55-77.87Q58.55-89.91 54.88-99.39Q51.20-108.88 44.47-115.41Q37.74-121.93 28.46-125.40Q19.18-128.87 8.16-128.87L8.16-128.87Q-3.26-128.87-12.44-125.10Q-21.62-121.32-28.05-114.59Q-34.48-107.86-37.94-98.58Q-41.41-89.29-41.41-78.28L-41.41-78.28Q-41.41-53.59-28.66-40.64Q-15.91-27.69 7.55-27.69L7.55-27.69Q19.79-27.69 29.27-31.56Q38.76-35.44 45.29-42.17Q51.82-48.90 55.18-58.08Q58.55-67.26 58.55-77.87Z"/></g>
</svg>