<svg width="19" height="19" xmlns="http://www.w3.org/2000/svg" class="bi bi-brightness-high" fill="currentColor">

 <g>
  <title>Layer 1</title>
  <ellipse fill="#deeaea" ry="9.09091" rx="8.91335" id="svg_3" cy="9.53536" cx="9.5" stroke="#d2dbdb"/>
  <path stroke="#050404" id="svg_1" d="m9.5,12.62521a3.23141,3.1252 0 1 1 0,-6.25041a3.23141,3.1252 0 0 1 0,6.25041zm0,1.04173a4.30855,4.16694 0 1 0 0,-8.33388a4.30855,4.16694 0 0 0 0,8.33388zm0,-12.50082a0.53857,0.52087 0 0 1 0.53857,0.52087l0,2.08347a0.53857,0.52087 0 0 1 -1.07714,0l0,-2.08347a0.53857,0.52087 0 0 1 0.53857,-0.52087zm0,13.54255a0.53857,0.52087 0 0 1 0.53857,0.52087l0,2.08347a0.53857,0.52087 0 0 1 -1.07714,0l0,-2.08347a0.53857,0.52087 0 0 1 0.53857,-0.52087zm8.61709,-5.20867a0.53857,0.52087 0 0 1 -0.53857,0.52087l-2.15427,0a0.53857,0.52087 0 0 1 0,-1.04173l2.15427,0a0.53857,0.52087 0 0 1 0.53857,0.52087zm-14.00277,0a0.53857,0.52087 0 0 1 -0.53857,0.52087l-2.15427,0a0.53857,0.52087 0 0 1 0,-1.04173l2.15427,0a0.53857,0.52087 0 0 1 0.53857,0.52087zm11.47904,-5.89309a0.53857,0.52087 0 0 1 0,0.73651l-1.52307,1.47405a0.53857,0.52087 0 1 1 -0.76154,-0.73755l1.52307,-1.47301a0.53857,0.52087 0 0 1 0.76154,0zm-9.90211,9.57667a0.53857,0.52087 0 0 1 0,0.73651l-1.52307,1.47301a0.53857,0.52087 0 0 1 -0.76154,-0.73651l1.52307,-1.47301a0.53857,0.52087 0 0 1 0.76154,0zm9.90211,2.20952a0.53857,0.52087 0 0 1 -0.76154,0l-1.52307,-1.47301a0.53857,0.52087 0 0 1 0.76154,-0.73651l1.52307,1.47301a0.53857,0.52087 0 0 1 0,0.73651zm-9.90211,-9.57563a0.53857,0.52087 0 0 1 -0.76154,0l-1.52307,-1.47405a0.53857,0.52087 0 1 1 0.76154,-0.73651l1.52307,1.47301a0.53857,0.52087 0 0 1 0,0.73755z" opacity="undefined" stroke-width="0" fill="#000000"/>
 </g>
</svg>